<svg width="32" height="32" viewBox="0 0 32 32" fill="none" xmlns="http://www.w3.org/2000/svg">
<g clip-path="url(#clip0_173_607)">
<path d="M16 32C24.8366 32 32 24.8366 32 16C32 7.16344 24.8366 0 16 0C7.16344 0 0 7.16344 0 16C0 24.8366 7.16344 32 16 32Z" fill="#566CFF"/>
<path d="M20.0216 18.124C20.0216 16 18.7416 15.272 16.1816 14.968C14.3536 14.725 13.9886 14.24 13.9886 13.39C13.9886 12.54 14.5986 11.994 15.8166 11.994C16.9136 11.994 17.5236 12.358 17.8276 13.269C17.8592 13.3571 17.9172 13.4334 17.9935 13.4875C18.0698 13.5417 18.161 13.5712 18.2546 13.572H19.2296C19.2859 13.5735 19.3419 13.5636 19.3943 13.5428C19.4466 13.522 19.4942 13.4907 19.5341 13.451C19.5741 13.4113 19.6055 13.3638 19.6265 13.3116C19.6476 13.2593 19.6578 13.2033 19.6566 13.147V13.087C19.5374 12.4279 19.2039 11.8266 18.7079 11.3765C18.2119 10.9264 17.5811 10.6528 16.9136 10.598V9.14201C16.9136 8.89901 16.7306 8.71701 16.4266 8.65601H15.5116C15.2686 8.65601 15.0856 8.83801 15.0246 9.14201V10.538C13.1956 10.78 12.0386 11.994 12.0386 13.512C12.0386 15.514 13.2566 16.303 15.8166 16.607C17.5236 16.91 18.0716 17.275 18.0716 18.246C18.0716 19.216 17.2186 19.884 16.0606 19.884C14.4756 19.884 13.9276 19.217 13.7446 18.306C13.6846 18.064 13.5006 17.942 13.3176 17.942H12.2816C12.2253 17.9406 12.1694 17.9507 12.1172 17.9716C12.0649 17.9924 12.0175 18.0237 11.9777 18.0634C11.9378 18.1031 11.9065 18.1505 11.8855 18.2027C11.8645 18.2549 11.8543 18.3108 11.8556 18.367V18.427C12.0986 19.945 13.0746 21.037 15.0856 21.341V22.798C15.0856 23.04 15.2686 23.223 15.5726 23.283H16.4876C16.7306 23.283 16.9136 23.101 16.9746 22.798V21.34C18.8036 21.037 20.0216 19.762 20.0216 18.123V18.124Z" fill="white"/>
<path d="M12.8918 24.497C8.1378 22.797 5.6998 17.517 7.4678 12.844C8.3818 10.294 10.3928 8.353 12.8918 7.442C13.1358 7.321 13.2568 7.139 13.2568 6.835V5.985C13.2568 5.743 13.1358 5.561 12.8918 5.5C12.8308 5.5 12.7088 5.5 12.6478 5.56C11.2762 5.98832 10.0029 6.68373 8.90122 7.60617C7.79951 8.52862 6.89115 9.65988 6.22844 10.9348C5.56574 12.2098 5.16177 13.6032 5.03981 15.0349C4.91784 16.4666 5.08029 17.9083 5.5178 19.277C6.6138 22.677 9.2348 25.287 12.6478 26.379C12.8918 26.5 13.1358 26.379 13.1958 26.136C13.2568 26.076 13.2568 26.014 13.2568 25.893V25.043C13.2568 24.861 13.0748 24.619 12.8918 24.497ZM19.3518 5.561C19.1078 5.439 18.8638 5.561 18.8038 5.803C18.7428 5.864 18.7428 5.925 18.7428 6.046V6.896C18.7428 7.139 18.9248 7.381 19.1078 7.503C23.8618 9.203 26.2998 14.483 24.5318 19.156C23.6178 21.706 21.6068 23.647 19.1078 24.558C18.8638 24.679 18.7428 24.861 18.7428 25.165V26.015C18.7428 26.257 18.8638 26.439 19.1078 26.5C19.1688 26.5 19.2908 26.5 19.3518 26.44C20.7234 26.0117 21.9967 25.3163 23.0984 24.3938C24.2001 23.4714 25.1084 22.3401 25.7712 21.0652C26.4339 19.7902 26.8378 18.3968 26.9598 16.9651C27.0818 15.5334 26.9193 14.0917 26.4818 12.723C25.3858 9.263 22.7038 6.653 19.3518 5.561Z" fill="white"/>
</g>
<defs>
<clipPath id="clip0_173_607">
<rect width="32" height="32" fill="white"/>
</clipPath>
</defs>
</svg>
