<svg width="32" height="32" viewBox="0 0 32 32" fill="none" xmlns="http://www.w3.org/2000/svg">
<g clip-path="url(#clip0_173_613)">
<path d="M16 32C24.8366 32 32 24.8366 32 16C32 7.16344 24.8366 0 16 0C7.16344 0 0 7.16344 0 16C0 24.8366 7.16344 32 16 32Z" fill="#26A17B"/>
<path fill-rule="evenodd" clip-rule="evenodd" d="M17.9218 17.3831V17.3811C17.8118 17.3891 17.2448 17.4231 15.9798 17.4231C14.9698 17.4231 14.2588 17.3931 14.0088 17.3811V17.3841C10.1208 17.2131 7.2188 16.5361 7.2188 15.7261C7.2188 14.9171 10.1208 14.2401 14.0088 14.0661V16.7101C14.2628 16.7281 14.9908 16.7711 15.9968 16.7711C17.2038 16.7711 17.8088 16.7211 17.9218 16.7111V14.0681C21.8018 14.2411 24.6968 14.9181 24.6968 15.7261C24.6968 16.5361 21.8018 17.2111 17.9218 17.3831ZM17.9218 13.7931V11.4271H23.3358V7.81909H8.5948V11.4271H14.0088V13.7921C9.6088 13.9941 6.2998 14.8661 6.2998 15.9101C6.2998 16.9541 9.6088 17.8251 14.0088 18.0281V25.6101H17.9218V18.0261C22.3148 17.8241 25.6158 16.9531 25.6158 15.9101C25.6158 14.8671 22.3148 13.9961 17.9218 13.7931Z" fill="white"/>
</g>
<defs>
<clipPath id="clip0_173_613">
<rect width="32" height="32" fill="white"/>
</clipPath>
</defs>
</svg>
